<svg id="eUq4mTlR1Lg1" xmlns="http://www.w3.org/2000/svg" xmlns:xlink="http://www.w3.org/1999/xlink" viewBox="0 0 400 400" shape-rendering="geometricPrecision" text-rendering="geometricPrecision"><defs><radialGradient id="eUq4mTlR1Lg3-fill" cx="0" cy="0" r="0.5" spreadMethod="pad" gradientUnits="objectBoundingBox" gradientTransform="translate(0.5 0.5)"><stop id="eUq4mTlR1Lg3-fill-0" offset="0%" stop-color="#d5d8e4"/><stop id="eUq4mTlR1Lg3-fill-1" offset="69%" stop-color="#597dfe"/></radialGradient></defs><g><path d="M124.347,10.3c-.081.385-.1,22.909-.042,50.054l.104,49.355l23.896,23.971c13.142,13.184,24.946,24.995,26.231,26.246c6.87,6.688,13.464,13.423,13.464,13.751c0,.206.585.317,1.3.248l1.3-.125.116-48.2c.064-26.51.005-49.01-.13-50-.24-1.762-.916-2.471-32.321-33.9C126.41,9.82,124.766,8.298,124.347,10.3M243.515,41.957L211.183,74.315l.109,49.742.108,49.743l1.18.134c.798.091,1.353-.103,1.713-.6.292-.404,14.656-14.872,31.919-32.153L277.6,109.763l.055-45.382c.03-24.959.099-47.181.154-49.381.119-4.797-.006-5.4-1.113-5.4-.593,0-10.617,9.774-33.181,32.357M11.662,124.279c-2.093.162-2.132.188-1.876,1.243.282,1.159,61.762,63.055,64.064,64.498c1.225.768,2.204.781,50.6.682l49.35-.102.108-1c.091-.845-4.862-5.961-32.044-33.1l-32.152-32.1-46.556-.004c-25.606-.003-47.186-.067-47.956-.143s-2.362-.064-3.538.026m281.44.258c-2.013.521-65.22,63.821-65.034,65.129l.132.934h49.61h49.61l1.19-.92c7.455-5.766,65.319-65.263,63.49-65.283-18.891-.206-98.095-.094-98.998.14M74.815,211.493c-1.269.238-65.084,63.908-65.327,65.179C9.226,278.043,7.589,278,59.933,278l49.467-.001l30-30.02c16.5-16.511,30.966-30.941,32.147-32.067c2.303-2.195,3.224-4.084,2.184-4.483-.702-.27-97.47-.206-98.916.064m153.685-.028c-1.205.486-.426,2.062,2.4,4.858c1.595,1.578,3.109,3.096,3.364,3.373c7.124,7.742,58.217,57.902,58.973,57.895.529-.005,23.047.036,50.039.091c26.991.055,49.181-.006,49.311-.135.313-.314-.516-2.456-1.088-2.809-.248-.153-14.501-14.322-31.675-31.487-17.395-17.386-31.723-31.395-32.35-31.629-1.143-.428-97.922-.582-98.974-.157m-71.548,48.237c-17.406,17.434-31.856,32.1-32.11,32.592-.356.686-.699,77.682-.445,99.806.02,1.819,59.54-56.065,65.282-63.49l.921-1.19v-49.61-49.61l-1-.098c-.841-.082-6.033,4.944-32.648,31.6m54.506-31.109c-.125.327-.238,22.764-.25,49.862l-.023,49.268l31.595,31.638c17.378,17.402,31.826,31.933,32.108,32.293.281.359.999.738,1.593.841c1.467.254,1.504-.055,1.345-11.095-.073-5.06-.153-27.179-.179-49.154l-.047-39.953-31.455-31.495c-17.301-17.323-31.62-31.788-31.82-32.147-.458-.818-2.559-.86-2.867-.058" fill="url(#eUq4mTlR1Lg3-fill)"/></g></svg>